<?xml version="1.0" standalone="no"?>
<!DOCTYPE svg PUBLIC "-//W3C//DTD SVG 20010904//EN"
 "http://www.w3.org/TR/2001/REC-SVG-20010904/DTD/svg10.dtd">
<svg version="1.0" xmlns="http://www.w3.org/2000/svg"
 width="37.000000pt" height="37.000000pt" viewBox="0 0 37.000000 37.000000"
 preserveAspectRatio="xMidYMid meet">
<metadata>
Created by potrace 1.16, written by Peter Selinger 2001-2019
</metadata>
<g transform="translate(0.000000,37.000000) scale(0.002552,-0.002552)"
fill="#000000" stroke="none">
<path d="M7005 13714 c-1286 -81 -2479 -475 -3510 -1159 -1501 -995 -2445
-2437 -2690 -4104 -17 -116 -20 -159 -11 -168 6 -6 349 -203 761 -436 413
-233 792 -448 843 -477 51 -29 89 -56 85 -60 -4 -5 -388 -250 -853 -545 -465
-296 -847 -539 -849 -541 -6 -5 69 -353 119 -549 428 -1679 1321 -2996 2610
-3850 924 -613 2002 -962 3195 -1036 238 -15 816 -6 1045 15 1724 163 3283
876 4385 2007 775 796 1274 1730 1494 2801 30 145 74 430 86 558 l6 65 -208
129 c-936 582 -1518 948 -1520 954 -2 7 448 259 1346 754 207 115 377 212 379
217 1 4 -26 109 -62 232 -605 2092 -1742 3610 -3353 4479 -284 153 -590 283
-943 400 -471 156 -890 243 -1425 296 -142 14 -791 27 -930 18z m-340 -4607
c287 -483 526 -882 532 -888 7 -7 180 263 538 838 290 466 529 850 531 852 5
6 822 -14 829 -20 3 -4 -305 -537 -686 -1185 -621 -1059 -690 -1182 -682
-1204 6 -14 350 -657 766 -1430 l756 -1405 -162 -6 c-89 -3 -310 -8 -491 -10
l-329 -4 -571 982 c-314 541 -573 983 -576 982 -3 0 -261 -435 -575 -966 -313
-531 -577 -974 -585 -984 -15 -19 -24 -19 -444 11 -236 16 -431 32 -434 34 -2
3 366 630 818 1393 453 763 825 1392 827 1396 3 4 -329 547 -738 1207 -408
659 -742 1202 -743 1207 -1 9 762 81 843 79 l54 -1 522 -878z"/>
</g>
</svg>
