<?xml version="1.0" encoding="UTF-8"?>
<svg xmlns="http://www.w3.org/2000/svg" xmlns:xlink="http://www.w3.org/1999/xlink" width="121pt" height="40pt" viewBox="0 0 121 40" version="1.1">
<defs>
<clipPath id="clip1">
  <path d="M 0 0 L 40 0 L 40 39.804688 L 0 39.804688 Z M 0 0 "/>
</clipPath>
</defs>
<g id="surface1">
<path style=" stroke:none;fill-rule:nonzero;fill:rgb(100%,100%,100%);fill-opacity:1;" d="M 27.355469 31.351562 L 11.03125 31.351562 L 11.03125 10.3125 L 27.355469 10.3125 Z M 27.355469 31.351562 "/>
<g clip-path="url(#clip1)" clip-rule="nonzero">
<path style=" stroke:none;fill-rule:nonzero;fill:rgb(72.54902%,71.764706%,70.196078%);fill-opacity:1;" d="M 22.910156 27.191406 L 19.699219 21.660156 L 16.429688 27.191406 L 13.964844 27.023438 L 18.609375 19.171875 L 14.425781 12.398438 L 16.945312 12.179688 L 19.925781 17.199219 L 22.910156 12.398438 L 25.261719 12.457031 L 21.359375 19.117188 L 25.664062 27.136719 Z M 39.75 18.019531 C 35.222656 -8.253906 1 -3.175781 0.382812 18.019531 C 2.363281 19.046875 3.601562 19.667969 3.601562 19.667969 C 3.601562 19.667969 2.558594 20.300781 0.371094 21.699219 C 4.316406 47.453125 37.957031 43.710938 39.742188 21.667969 C 37.597656 20.351562 36.4375 19.65625 36.4375 19.65625 C 36.4375 19.65625 37.433594 19.183594 39.75 18.019531 "/>
</g>
<path style=" stroke:none;fill-rule:nonzero;fill:rgb(21.960784%,33.72549%,52.54902%);fill-opacity:1;" d="M 22.910156 27.207031 L 19.699219 21.671875 L 16.429688 27.207031 L 13.964844 27.035156 L 18.605469 19.191406 L 14.425781 12.417969 L 16.945312 12.191406 L 19.925781 17.21875 L 22.910156 12.417969 L 25.261719 12.476562 L 21.359375 19.132812 L 25.65625 27.15625 Z M 38.152344 16.984375 C 32.015625 -6.355469 3.910156 -0.0429688 1.980469 16.984375 C 5.882812 19.183594 6.769531 19.707031 6.769531 19.707031 C 6.769531 19.707031 5.261719 20.671875 1.96875 22.769531 C 6.152344 45.210938 36.484375 40.894531 38.144531 22.738281 C 35.085938 20.816406 33.273438 19.695312 33.273438 19.695312 C 33.273438 19.695312 37.402344 17.382812 38.152344 16.984375 "/>
<path style="fill-rule:nonzero;fill:rgb(100%,100%,100%);fill-opacity:1;stroke-width:0.05;stroke-linecap:square;stroke-linejoin:bevel;stroke:rgb(100%,100%,100%);stroke-opacity:1;stroke-miterlimit:4;" d="M 0.0000141364 -0.00120345 L -0.695154 -0.00120345 L -1.867727 2.099362 L -3.080502 -0.00120345 L -3.70364 -0.00120345 L -2.204422 2.525491 L -3.598109 4.831601 L -2.946493 4.831601 L -1.84595 2.985042 L -0.743732 4.831601 L -0.115568 4.831601 L -1.507579 2.543873 Z M 0.0000141364 -0.00120345 " transform="matrix(2.331945,0,0,-2.33754,52.496061,18.118281)"/>
<path style=" stroke:none;fill-rule:nonzero;fill:rgb(100%,100%,100%);fill-opacity:1;" d="M 55.242188 18.121094 L 53.839844 18.121094 L 53.839844 9.632812 L 55.242188 9.632812 Z M 53.734375 7.339844 C 53.734375 7.03125 53.808594 6.804688 53.964844 6.664062 C 54.121094 6.527344 54.316406 6.457031 54.542969 6.457031 C 54.664062 6.457031 54.765625 6.476562 54.863281 6.507812 C 54.964844 6.539062 55.054688 6.597656 55.128906 6.664062 C 55.203125 6.742188 55.261719 6.828125 55.304688 6.941406 C 55.347656 7.050781 55.375 7.183594 55.375 7.339844 C 55.375 7.636719 55.292969 7.863281 55.128906 8.007812 C 54.964844 8.152344 54.769531 8.226562 54.542969 8.226562 C 54.316406 8.226562 54.121094 8.160156 53.964844 8.015625 C 53.808594 7.871094 53.734375 7.640625 53.734375 7.339844 "/>
<path style="fill:none;stroke-width:0.05;stroke-linecap:square;stroke-linejoin:bevel;stroke:rgb(100%,100%,100%);stroke-opacity:1;stroke-miterlimit:4;" d="M 23.689317 9.276099 L 23.087955 9.276099 L 23.087955 12.907386 L 23.689317 12.907386 Z M 23.042727 13.888319 C 23.042727 14.020335 23.074554 14.117258 23.141558 14.177418 C 23.208562 14.235906 23.292317 14.265986 23.389473 14.265986 C 23.441402 14.265986 23.484954 14.25763 23.526832 14.244262 C 23.570385 14.230893 23.608912 14.205826 23.640739 14.177418 C 23.672566 14.143996 23.697692 14.107232 23.716119 14.05877 C 23.734545 14.01198 23.74627 13.955162 23.74627 13.888319 C 23.74627 13.761315 23.711093 13.664392 23.640739 13.602561 C 23.570385 13.540731 23.486629 13.50898 23.389473 13.50898 C 23.292317 13.50898 23.208562 13.537389 23.141558 13.599219 C 23.074554 13.66105 23.042727 13.759644 23.042727 13.888319 Z M 23.042727 13.888319 " transform="matrix(2.331945,0,0,-2.33754,0,39.804348)"/>
<path style="fill-rule:nonzero;fill:rgb(100%,100%,100%);fill-opacity:1;stroke-width:0.05;stroke-linecap:square;stroke-linejoin:bevel;stroke:rgb(100%,100%,100%);stroke-opacity:1;stroke-miterlimit:4;" d="M -0.000877646 -0.00120345 L -0.000877646 2.336657 C -0.000877646 2.624085 -0.0578312 2.837986 -0.173413 2.983371 C -0.288995 3.125414 -0.471582 3.1956 -0.717822 3.1956 C -0.895383 3.1956 -1.046142 3.168862 -1.168425 3.110374 C -1.289032 3.053557 -1.386188 2.96666 -1.458218 2.856368 C -1.533598 2.742733 -1.585526 2.605703 -1.617353 2.443607 C -1.650855 2.27984 -1.665931 2.091006 -1.665931 1.880449 L -1.665931 -0.00120345 L -2.267293 -0.00120345 L -2.267293 3.630084 L -1.779838 3.630084 L -1.692732 3.142125 L -1.660905 3.142125 C -1.603952 3.234035 -1.540298 3.31759 -1.464918 3.387776 C -1.386188 3.454619 -1.305783 3.514779 -1.213653 3.559898 C -1.121522 3.605018 -1.027716 3.640111 -0.925535 3.661835 C -0.823354 3.683559 -0.719497 3.696928 -0.615641 3.696928 C -0.210266 3.696928 0.0912531 3.589978 0.295616 3.37942 C 0.499978 3.168862 0.603835 2.831301 0.603835 2.37175 L 0.603835 -0.00120345 Z M -0.000877646 -0.00120345 " transform="matrix(2.331945,0,0,-2.33754,63.212984,18.118281)"/>
<path style="fill-rule:nonzero;fill:rgb(100%,100%,100%);fill-opacity:1;stroke-width:0.05;stroke-linecap:square;stroke-linejoin:bevel;stroke:rgb(100%,100%,100%);stroke-opacity:1;stroke-miterlimit:4;" d="M -0.000703196 -0.00120345 L -0.613791 -0.00120345 L -0.613791 4.831601 L 1.895514 4.831601 L 1.895514 4.290166 L -0.000703196 4.290166 L -0.000703196 2.583979 L 1.768206 2.583979 L 1.768206 2.042545 L -0.000703196 2.042545 Z M -0.000703196 -0.00120345 " transform="matrix(2.331945,0,0,-2.33754,68.849296,18.118281)"/>
<path style=" stroke:none;fill-rule:nonzero;fill:rgb(100%,100%,100%);fill-opacity:1;" d="M 76.378906 18.121094 L 74.976562 18.121094 L 74.976562 9.632812 L 76.378906 9.632812 Z M 74.871094 7.339844 C 74.871094 7.03125 74.945312 6.804688 75.101562 6.664062 C 75.261719 6.527344 75.457031 6.457031 75.6875 6.457031 C 75.800781 6.457031 75.90625 6.476562 76.007812 6.507812 C 76.109375 6.539062 76.195312 6.597656 76.265625 6.664062 C 76.339844 6.742188 76.40625 6.828125 76.449219 6.941406 C 76.492188 7.050781 76.511719 7.183594 76.511719 7.339844 C 76.511719 7.636719 76.429688 7.863281 76.265625 8.007812 C 76.109375 8.152344 75.914062 8.226562 75.6875 8.226562 C 75.457031 8.226562 75.261719 8.160156 75.101562 8.015625 C 74.945312 7.871094 74.871094 7.640625 74.871094 7.339844 "/>
<path style="fill:none;stroke-width:0.05;stroke-linecap:square;stroke-linejoin:bevel;stroke:rgb(100%,100%,100%);stroke-opacity:1;stroke-miterlimit:4;" d="M 32.753303 9.276099 L 32.151941 9.276099 L 32.151941 12.907386 L 32.753303 12.907386 Z M 32.106713 13.888319 C 32.106713 14.020335 32.13854 14.117258 32.205544 14.177418 C 32.274223 14.235906 32.357979 14.265986 32.45681 14.265986 C 32.505388 14.265986 32.550616 14.25763 32.594168 14.244262 C 32.637721 14.230893 32.674573 14.205826 32.704725 14.177418 C 32.736552 14.143996 32.765029 14.107232 32.783455 14.05877 C 32.801881 14.01198 32.810257 13.955162 32.810257 13.888319 C 32.810257 13.761315 32.775079 13.664392 32.704725 13.602561 C 32.637721 13.540731 32.553966 13.50898 32.45681 13.50898 C 32.357979 13.50898 32.274223 13.537389 32.205544 13.599219 C 32.13854 13.66105 32.106713 13.759644 32.106713 13.888319 Z M 32.106713 13.888319 " transform="matrix(2.331945,0,0,-2.33754,0,39.804348)"/>
<path style="fill-rule:nonzero;fill:rgb(100%,100%,100%);fill-opacity:1;stroke-width:0.05;stroke-linecap:square;stroke-linejoin:bevel;stroke:rgb(100%,100%,100%);stroke-opacity:1;stroke-miterlimit:4;" d="M 0.00105646 -0.00120345 L 0.00105646 2.336657 C 0.00105646 2.624085 -0.0575722 2.837986 -0.174829 2.983371 C -0.290412 3.125414 -0.471323 3.1956 -0.719238 3.1956 C -0.896799 3.1956 -1.044208 3.168862 -1.166491 3.110374 C -1.287098 3.053557 -1.387605 2.96666 -1.459634 2.856368 C -1.533339 2.742733 -1.586942 2.605703 -1.618769 2.443607 C -1.650596 2.27984 -1.663997 2.091006 -1.663997 1.880449 L -1.663997 -0.00120345 L -2.268709 -0.00120345 L -2.268709 3.630084 L -1.777904 3.630084 L -1.692473 3.142125 L -1.658971 3.142125 C -1.602018 3.234035 -1.538364 3.31759 -1.462984 3.387776 C -1.387605 3.454619 -1.303849 3.514779 -1.215069 3.559898 C -1.122938 3.605018 -1.025782 3.640111 -0.926951 3.661835 C -0.823095 3.683559 -0.720913 3.696928 -0.617057 3.696928 C -0.211682 3.696928 0.0931872 3.589978 0.2942 3.37942 C 0.500237 3.168862 0.602419 2.831301 0.602419 2.37175 L 0.602419 -0.00120345 Z M 0.00105646 -0.00120345 " transform="matrix(2.331945,0,0,-2.33754,84.353005,18.118281)"/>
<path style=" stroke:none;fill-rule:nonzero;fill:rgb(100%,100%,100%);fill-opacity:1;" d="M 95.375 15.097656 C 95.375 15.601562 95.285156 16.039062 95.109375 16.4375 C 94.933594 16.828125 94.675781 17.167969 94.347656 17.441406 C 94.023438 17.710938 93.621094 17.917969 93.148438 18.0625 C 92.675781 18.203125 92.144531 18.269531 91.550781 18.269531 C 90.980469 18.269531 90.445312 18.226562 89.957031 18.140625 C 89.460938 18.042969 89.042969 17.917969 88.710938 17.742188 L 88.710938 16.363281 C 88.878906 16.449219 89.082031 16.527344 89.300781 16.609375 C 89.527344 16.691406 89.765625 16.757812 90.011719 16.820312 C 90.257812 16.886719 90.507812 16.929688 90.773438 16.972656 C 91.035156 17.011719 91.292969 17.03125 91.550781 17.03125 C 92.375 17.03125 92.984375 16.871094 93.375 16.5625 C 93.769531 16.253906 93.964844 15.8125 93.964844 15.234375 C 93.964844 14.957031 93.929688 14.71875 93.851562 14.511719 C 93.777344 14.300781 93.644531 14.113281 93.460938 13.941406 C 93.273438 13.765625 93.023438 13.601562 92.707031 13.4375 C 92.394531 13.28125 92 13.097656 91.519531 12.910156 C 91.0625 12.726562 90.664062 12.53125 90.328125 12.316406 C 89.992188 12.101562 89.714844 11.863281 89.496094 11.59375 C 89.277344 11.328125 89.113281 11.027344 89.011719 10.683594 C 88.90625 10.34375 88.855469 9.960938 88.855469 9.527344 C 88.855469 9.074219 88.9375 8.667969 89.101562 8.316406 C 89.265625 7.957031 89.496094 7.65625 89.792969 7.410156 C 90.09375 7.167969 90.445312 6.980469 90.859375 6.855469 C 91.277344 6.722656 91.734375 6.660156 92.230469 6.660156 C 92.839844 6.660156 93.394531 6.714844 93.878906 6.828125 C 94.367188 6.949219 94.800781 7.101562 95.183594 7.277344 L 94.664062 8.480469 C 94.332031 8.328125 93.953125 8.203125 93.527344 8.089844 C 93.105469 7.984375 92.671875 7.925781 92.21875 7.925781 C 91.589844 7.925781 91.105469 8.070312 90.761719 8.359375 C 90.414062 8.65625 90.246094 9.046875 90.246094 9.539062 C 90.246094 9.835938 90.277344 10.085938 90.359375 10.300781 C 90.433594 10.515625 90.566406 10.710938 90.742188 10.878906 C 90.921875 11.058594 91.15625 11.214844 91.457031 11.367188 C 91.753906 11.523438 92.117188 11.679688 92.546875 11.851562 C 93.011719 12.039062 93.425781 12.230469 93.777344 12.425781 C 94.128906 12.621094 94.425781 12.839844 94.65625 13.085938 C 94.894531 13.332031 95.070312 13.621094 95.199219 13.941406 C 95.316406 14.269531 95.375 14.65625 95.375 15.097656 "/>
<path style="fill:none;stroke-width:0.05;stroke-linecap:square;stroke-linejoin:bevel;stroke:rgb(100%,100%,100%);stroke-opacity:1;stroke-miterlimit:4;" d="M -0.000076476 -0.000277294 C -0.000076476 -0.215848 -0.0386039 -0.403011 -0.113984 -0.573463 C -0.189363 -0.740572 -0.29992 -0.885957 -0.440629 -1.002934 C -0.579662 -1.118239 -0.752198 -1.206807 -0.954886 -1.268638 C -1.157573 -1.328797 -1.385387 -1.357206 -1.640003 -1.357206 C -1.884568 -1.357206 -2.114057 -1.338824 -2.323445 -1.30206 C -2.536184 -1.260282 -2.71542 -1.206807 -2.857803 -1.131608 L -2.857803 -0.541712 C -2.785774 -0.578476 -2.698669 -0.611898 -2.604863 -0.646991 C -2.507707 -0.682084 -2.405525 -0.710492 -2.299994 -0.73723 C -2.194462 -0.765638 -2.087256 -0.78402 -1.973349 -0.802402 C -1.861117 -0.819113 -1.75056 -0.827469 -1.640003 -0.827469 C -1.286556 -0.827469 -1.02524 -0.758954 -0.85773 -0.626938 C -0.688544 -0.494921 -0.604789 -0.306088 -0.604789 -0.0587656 C -0.604789 0.0598821 -0.619865 0.161819 -0.653367 0.250387 C -0.685194 0.340626 -0.742147 0.420838 -0.820877 0.494367 C -0.901282 0.569566 -1.008489 0.639752 -1.144172 0.709938 C -1.278181 0.776781 -1.447366 0.855323 -1.653404 0.935535 C -1.849391 1.014077 -2.020252 1.097632 -2.16431 1.189542 C -2.308369 1.281452 -2.427302 1.383389 -2.521108 1.498694 C -2.614913 1.612329 -2.685268 1.741003 -2.72882 1.888059 C -2.774048 2.033444 -2.795825 2.197212 -2.795825 2.382703 C -2.795825 2.57655 -2.760647 2.750344 -2.690293 2.900742 C -2.619939 3.054483 -2.521108 3.183157 -2.3938 3.288436 C -2.264817 3.392044 -2.114057 3.472256 -1.936496 3.525731 C -1.75726 3.582549 -1.561273 3.609286 -1.348535 3.609286 C -1.087219 3.609286 -0.849354 3.585891 -0.641641 3.537429 C -0.432253 3.485625 -0.246317 3.420452 -0.0821566 3.345253 L -0.304945 2.830556 C -0.447329 2.895729 -0.609814 2.949204 -0.792401 2.997666 C -0.973312 3.042785 -1.159248 3.067852 -1.35356 3.067852 C -1.623252 3.067852 -1.830965 3.006021 -1.978374 2.88236 C -2.127458 2.755357 -2.199488 2.588248 -2.199488 2.37769 C -2.199488 2.250687 -2.186087 2.143737 -2.15091 2.051826 C -2.119083 1.959916 -2.062129 1.876361 -1.986749 1.804504 C -1.909695 1.727634 -1.809188 1.66079 -1.680206 1.595618 C -1.552898 1.528774 -1.397113 1.46193 -1.212852 1.388402 C -1.013514 1.308189 -0.835953 1.226306 -0.685194 1.142751 C -0.534435 1.059196 -0.407127 0.965615 -0.308296 0.860336 C -0.206114 0.755057 -0.130735 0.631396 -0.0754561 0.494367 C -0.025203 0.353995 -0.000076476 0.188556 -0.000076476 -0.000277294 Z M -0.000076476 -0.000277294 " transform="matrix(2.331945,0,0,-2.33754,95.375178,15.097008)"/>
<path style=" stroke:none;fill-rule:nonzero;fill:rgb(100%,100%,100%);fill-opacity:1;" d="M 100.679688 18.269531 C 100.15625 18.269531 99.671875 18.1875 99.226562 18.03125 C 98.773438 17.867188 98.378906 17.609375 98.042969 17.257812 C 97.710938 16.902344 97.449219 16.449219 97.253906 15.910156 C 97.0625 15.355469 96.96875 14.691406 96.96875 13.925781 C 96.96875 13.109375 97.070312 12.425781 97.265625 11.863281 C 97.460938 11.296875 97.722656 10.84375 98.070312 10.488281 C 98.410156 10.132812 98.8125 9.878906 99.269531 9.714844 C 99.730469 9.558594 100.21875 9.480469 100.742188 9.480469 C 101.144531 9.480469 101.53125 9.519531 101.917969 9.609375 C 102.300781 9.695312 102.621094 9.808594 102.878906 9.9375 L 102.464844 11.125 C 102.34375 11.074219 102.210938 11.019531 102.066406 10.976562 C 101.921875 10.925781 101.773438 10.878906 101.621094 10.84375 C 101.46875 10.804688 101.3125 10.773438 101.167969 10.75 C 101.019531 10.722656 100.875 10.71875 100.742188 10.71875 C 99.9375 10.71875 99.347656 10.976562 98.976562 11.492188 C 98.605469 12.007812 98.421875 12.816406 98.421875 13.90625 C 98.421875 14.996094 98.605469 15.789062 98.980469 16.292969 C 99.351562 16.796875 99.917969 17.042969 100.679688 17.042969 C 101.097656 17.042969 101.476562 17 101.808594 16.902344 C 102.144531 16.804688 102.449219 16.695312 102.734375 16.5625 L 102.734375 17.816406 C 102.449219 17.96875 102.15625 18.082031 101.839844 18.15625 C 101.519531 18.234375 101.136719 18.269531 100.679688 18.269531 "/>
<path style="fill:none;stroke-width:0.05;stroke-linecap:square;stroke-linejoin:bevel;stroke:rgb(100%,100%,100%);stroke-opacity:1;stroke-miterlimit:4;" d="M 0.000313733 0.00169507 C -0.22415 0.00169507 -0.431863 0.036788 -0.622825 0.103632 C -0.817137 0.173818 -0.986322 0.28411 -1.130381 0.434508 C -1.272765 0.586578 -1.384997 0.780425 -1.468752 1.011036 C -1.550832 1.248331 -1.591035 1.532417 -1.591035 1.859952 C -1.591035 2.20921 -1.547482 2.501652 -1.463727 2.74229 C -1.379972 2.984598 -1.26774 3.178445 -1.118656 3.330515 C -0.972922 3.482584 -0.800386 3.591205 -0.604399 3.661391 C -0.406736 3.728235 -0.197349 3.761657 0.0271154 3.761657 C 0.199651 3.761657 0.365486 3.744946 0.531322 3.706511 C 0.695482 3.669747 0.83284 3.621285 0.943397 3.566139 L 0.765836 3.058126 C 0.713908 3.079851 0.656954 3.103246 0.594976 3.121628 C 0.532997 3.143352 0.469343 3.163405 0.404014 3.178445 C 0.338685 3.195156 0.271681 3.208525 0.209702 3.218551 C 0.146048 3.230249 0.0840689 3.23192 0.0271154 3.23192 C -0.317956 3.23192 -0.570897 3.121628 -0.730031 2.901043 C -0.889166 2.680459 -0.967896 2.334543 -0.967896 1.868307 C -0.967896 1.402072 -0.889166 1.06284 -0.728356 0.847269 C -0.569222 0.631698 -0.326331 0.526419 0.000313733 0.526419 C 0.17955 0.526419 0.342035 0.544801 0.484419 0.586578 C 0.628478 0.628355 0.759136 0.675146 0.881418 0.731963 L 0.881418 0.195542 C 0.759136 0.130369 0.633503 0.0819076 0.49782 0.0501568 C 0.360461 0.0167349 0.196301 0.00169507 0.000313733 0.00169507 Z M 0.000313733 0.00169507 " transform="matrix(2.331945,0,0,-2.33754,100.678956,18.273494)"/>
<path style=" stroke:none;fill-rule:nonzero;fill:rgb(100%,100%,100%);fill-opacity:1;" d="M 106.949219 17.136719 C 107.257812 17.136719 107.554688 17.085938 107.820312 16.992188 C 108.089844 16.890625 108.316406 16.746094 108.511719 16.542969 C 108.710938 16.347656 108.863281 16.097656 108.96875 15.796875 C 109.082031 15.492188 109.136719 15.140625 109.136719 14.738281 L 109.136719 13.96875 L 108.03125 14.023438 C 107.574219 14.042969 107.183594 14.09375 106.871094 14.175781 C 106.554688 14.265625 106.308594 14.371094 106.121094 14.523438 C 105.925781 14.667969 105.792969 14.84375 105.710938 15.050781 C 105.632812 15.265625 105.59375 15.5 105.59375 15.761719 C 105.59375 16.234375 105.71875 16.582031 105.964844 16.804688 C 106.214844 17.03125 106.542969 17.136719 106.949219 17.136719 M 109.523438 18.121094 L 109.238281 16.941406 L 109.175781 16.941406 C 109.007812 17.175781 108.835938 17.375 108.667969 17.546875 C 108.496094 17.710938 108.316406 17.847656 108.113281 17.957031 C 107.914062 18.0625 107.6875 18.144531 107.441406 18.195312 C 107.191406 18.246094 106.90625 18.269531 106.585938 18.269531 C 106.226562 18.269531 105.90625 18.222656 105.605469 18.125 C 105.3125 18.027344 105.054688 17.867188 104.832031 17.660156 C 104.613281 17.453125 104.441406 17.1875 104.316406 16.871094 C 104.191406 16.550781 104.136719 16.179688 104.136719 15.746094 C 104.136719 14.902344 104.429688 14.25 105.019531 13.796875 C 105.617188 13.34375 106.515625 13.097656 107.738281 13.0625 L 109.152344 13.003906 L 109.152344 12.46875 C 109.152344 12.121094 109.121094 11.832031 109.039062 11.605469 C 108.960938 11.371094 108.855469 11.183594 108.71875 11.042969 C 108.578125 10.898438 108.402344 10.800781 108.195312 10.734375 C 107.980469 10.671875 107.75 10.648438 107.480469 10.648438 C 107.050781 10.648438 106.65625 10.710938 106.292969 10.832031 C 105.921875 10.957031 105.566406 11.101562 105.230469 11.285156 L 104.730469 10.21875 C 105.117188 10.011719 105.535156 9.839844 106.007812 9.695312 C 106.472656 9.550781 106.96875 9.480469 107.480469 9.480469 C 108.007812 9.480469 108.460938 9.53125 108.84375 9.640625 C 109.226562 9.742188 109.539062 9.910156 109.785156 10.136719 C 110.039062 10.371094 110.226562 10.660156 110.34375 11.019531 C 110.472656 11.371094 110.535156 11.800781 110.535156 12.304688 L 110.535156 18.121094 Z M 109.523438 18.121094 "/>
<path style="fill:none;stroke-width:0.05;stroke-linecap:square;stroke-linejoin:bevel;stroke:rgb(100%,100%,100%);stroke-opacity:1;stroke-miterlimit:4;" d="M 0.000454459 0.0000119888 C 0.132788 0.0000119888 0.260096 0.0217362 0.374003 0.0618425 C 0.489585 0.105291 0.586741 0.167121 0.670496 0.254018 C 0.755926 0.337573 0.821255 0.444523 0.866483 0.573197 C 0.915061 0.703543 0.938513 0.853941 0.938513 1.026064 L 0.938513 1.355269 L 0.464458 1.331874 C 0.268471 1.323519 0.100961 1.301794 -0.0330476 1.266701 C -0.168731 1.228266 -0.274263 1.183147 -0.354668 1.117974 C -0.438423 1.056144 -0.495376 0.980944 -0.530553 0.892376 C -0.564055 0.800466 -0.580807 0.7002 -0.580807 0.588237 C -0.580807 0.386035 -0.527203 0.237307 -0.421672 0.142055 C -0.314465 0.0451315 -0.173756 0.0000119888 0.000454459 0.0000119888 Z M 1.104348 -0.421104 L 0.982065 0.0835667 L 0.955264 0.0835667 C 0.883234 -0.016699 0.80953 -0.101925 0.7375 -0.175453 C 0.663796 -0.245639 0.586741 -0.304127 0.499635 -0.350918 C 0.414205 -0.396037 0.317049 -0.43113 0.211518 -0.452855 C 0.104311 -0.474579 -0.0179717 -0.484605 -0.15533 -0.484605 C -0.30944 -0.484605 -0.446798 -0.464552 -0.575781 -0.422775 C -0.701414 -0.380997 -0.811971 -0.312483 -0.907452 -0.223915 C -1.001258 -0.135347 -1.074962 -0.0217122 -1.128565 0.113646 C -1.182169 0.250676 -1.20562 0.40943 -1.20562 0.594922 C -1.20562 0.955878 -1.079987 1.234951 -0.827047 1.428798 C -0.570756 1.622644 -0.185482 1.727923 0.338825 1.742963 L 0.945213 1.76803 L 0.945213 1.99697 C 0.945213 2.145697 0.931812 2.269358 0.896635 2.366281 C 0.863133 2.466547 0.817905 2.54676 0.759276 2.606919 C 0.698973 2.668749 0.623593 2.710527 0.534813 2.738935 C 0.442682 2.765673 0.343851 2.775699 0.228269 2.775699 C 0.0440072 2.775699 -0.125178 2.748962 -0.280963 2.697158 C -0.440098 2.643683 -0.592532 2.581852 -0.736591 2.503311 L -0.951004 2.95952 C -0.785169 3.048088 -0.605933 3.121616 -0.403246 3.183446 C -0.203908 3.245277 0.00882998 3.275357 0.228269 3.275357 C 0.454408 3.275357 0.64872 3.253632 0.81288 3.206842 C 0.97704 3.163393 1.111048 3.091536 1.21658 2.994613 C 1.325462 2.894347 1.405866 2.770686 1.45612 2.616945 C 1.511398 2.466547 1.5382 2.282727 1.5382 2.067155 L 1.5382 -0.421104 Z M 1.104348 -0.421104 " transform="matrix(2.331945,0,0,-2.33754,106.948159,17.136747)"/>
<path style="fill-rule:nonzero;fill:rgb(100%,100%,100%);fill-opacity:1;stroke-width:0.05;stroke-linecap:square;stroke-linejoin:bevel;stroke:rgb(100%,100%,100%);stroke-opacity:1;stroke-miterlimit:4;" d="M 0.00123322 -0.00120345 L 0.00123322 2.336657 C 0.00123322 2.624085 -0.0573954 2.837986 -0.174653 2.983371 C -0.290235 3.125414 -0.471146 3.1956 -0.715711 3.1956 C -0.896622 3.1956 -1.047382 3.168862 -1.166314 3.110374 C -1.286922 3.053557 -1.387428 2.96666 -1.459457 2.856368 C -1.533162 2.742733 -1.586765 2.605703 -1.618592 2.443607 C -1.650419 2.27984 -1.66717 2.091006 -1.66717 1.880449 L -1.66717 -0.00120345 L -2.268532 -0.00120345 L -2.268532 3.630084 L -1.777727 3.630084 L -1.692297 3.142125 L -1.658795 3.142125 C -1.605191 3.234035 -1.538187 3.31759 -1.462807 3.387776 C -1.387428 3.454619 -1.303673 3.514779 -1.211542 3.559898 C -1.122761 3.605018 -1.025605 3.640111 -0.926774 3.661835 C -0.822918 3.683559 -0.720736 3.696928 -0.61353 3.696928 C -0.211505 3.696928 0.0933639 3.589978 0.294376 3.37942 C 0.500414 3.168862 0.602595 2.831301 0.602595 2.37175 L 0.602595 -0.00120345 Z M 0.00123322 -0.00120345 " transform="matrix(2.331945,0,0,-2.33754,118.418999,18.118281)"/>
<path style="fill-rule:nonzero;fill:rgb(100%,100%,100%);fill-opacity:1;stroke-width:0.05;stroke-linecap:square;stroke-linejoin:bevel;stroke:rgb(100%,100%,100%);stroke-opacity:1;stroke-miterlimit:4;" d="M 0.000066086 0.0000166463 L -0.698452 0.0000166463 L -1.867675 2.100582 L -3.0838 0.0000166463 L -3.703588 0.0000166463 L -2.20437 2.526711 L -3.601407 4.832821 L -2.946441 4.832821 L -1.849248 2.984591 L -0.74368 4.832821 L -0.115516 4.832821 L -1.509202 2.545093 Z M 0.000066086 0.0000166463 " transform="matrix(2.331945,0,0,-2.33754,100.765471,33.191445)"/>
<path style=" stroke:none;fill-rule:nonzero;fill:rgb(100%,100%,100%);fill-opacity:1;" d="M 109.082031 27.480469 C 109.082031 26.734375 109 26.078125 108.832031 25.527344 C 108.660156 24.980469 108.414062 24.527344 108.089844 24.175781 C 107.769531 23.820312 107.367188 23.550781 106.894531 23.378906 C 106.417969 23.210938 105.882812 23.121094 105.285156 23.121094 L 103.734375 23.121094 L 103.734375 31.957031 L 104.984375 31.957031 C 106.335938 31.957031 107.359375 31.578125 108.050781 30.828125 C 108.742188 30.070312 109.082031 28.957031 109.082031 27.480469 M 110.601562 27.433594 C 110.601562 28.390625 110.476562 29.222656 110.230469 29.945312 C 109.988281 30.664062 109.628906 31.261719 109.15625 31.742188 C 108.691406 32.226562 108.121094 32.585938 107.433594 32.824219 C 106.757812 33.070312 105.984375 33.191406 105.121094 33.191406 L 102.300781 33.191406 L 102.300781 21.894531 L 105.4375 21.894531 C 106.222656 21.894531 106.933594 22.011719 107.574219 22.253906 C 108.207031 22.484375 108.75 22.839844 109.203125 23.304688 C 109.648438 23.769531 109.992188 24.351562 110.238281 25.039062 C 110.484375 25.730469 110.601562 26.53125 110.601562 27.433594 "/>
<path style="fill:none;stroke-width:0.05;stroke-linecap:square;stroke-linejoin:bevel;stroke:rgb(100%,100%,100%);stroke-opacity:1;stroke-miterlimit:4;" d="M -0.00103903 0.000755809 C -0.00103903 0.319935 -0.0362162 0.600679 -0.108246 0.836303 C -0.18195 1.070256 -0.287482 1.264103 -0.426515 1.414501 C -0.563874 1.566571 -0.73641 1.681877 -0.939097 1.755405 C -1.14346 1.827262 -1.372949 1.865697 -1.62924 1.865697 L -2.294256 1.865697 L -2.294256 -1.914318 L -1.758223 -1.914318 C -1.178637 -1.914318 -0.73976 -1.752222 -0.443266 -1.431372 C -0.146773 -1.10718 -0.00103903 -0.630918 -0.00103903 0.000755809 Z M 0.650576 0.0208089 C 0.650576 -0.388609 0.596973 -0.744552 0.491441 -1.053705 C 0.387585 -1.361186 0.233475 -1.616863 0.0307879 -1.822408 C -0.168549 -2.029624 -0.413115 -2.183364 -0.707933 -2.285301 C -0.997726 -2.39058 -1.329396 -2.442384 -1.699594 -2.442384 L -2.909019 -2.442384 L -2.909019 2.39042 L -1.563911 2.39042 C -1.227215 2.39042 -0.922346 2.340288 -0.647629 2.23668 C -0.376262 2.138085 -0.143423 1.986016 0.0508892 1.787155 C 0.241851 1.588295 0.38926 1.339302 0.494792 1.04519 C 0.600323 0.749406 0.650576 0.406832 0.650576 0.0208089 Z M 0.650576 0.0208089 " transform="matrix(2.331945,0,0,-2.33754,109.084454,27.482235)"/>
<path style=" stroke:none;fill-rule:nonzero;fill:rgb(100%,100%,100%);fill-opacity:1;" d="M 117.679688 22.996094 C 117.132812 22.996094 116.628906 23.105469 116.183594 23.3125 C 115.738281 23.519531 115.355469 23.820312 115.039062 24.210938 C 114.71875 24.601562 114.480469 25.082031 114.304688 25.644531 C 114.136719 26.203125 114.046875 26.839844 114.046875 27.546875 C 114.046875 28.269531 114.121094 28.914062 114.273438 29.480469 C 114.425781 30.046875 114.65625 30.519531 114.957031 30.902344 C 115.261719 31.292969 115.636719 31.582031 116.089844 31.785156 C 116.542969 31.988281 117.070312 32.089844 117.679688 32.089844 C 118.140625 32.089844 118.574219 32.039062 118.988281 31.949219 C 119.390625 31.859375 119.796875 31.761719 120.199219 31.640625 L 120.199219 32.886719 C 120 32.96875 119.796875 33.039062 119.597656 33.097656 C 119.394531 33.152344 119.1875 33.203125 118.96875 33.242188 C 118.753906 33.273438 118.515625 33.296875 118.269531 33.316406 C 118.019531 33.335938 117.742188 33.347656 117.441406 33.347656 C 116.597656 33.347656 115.871094 33.210938 115.253906 32.925781 C 114.632812 32.648438 114.121094 32.257812 113.71875 31.746094 C 113.316406 31.238281 113.015625 30.625 112.820312 29.90625 C 112.625 29.191406 112.53125 28.394531 112.53125 27.527344 C 112.53125 26.667969 112.640625 25.886719 112.867188 25.183594 C 113.085938 24.464844 113.417969 23.859375 113.851562 23.347656 C 114.285156 22.839844 114.828125 22.441406 115.46875 22.160156 C 116.109375 21.875 116.851562 21.730469 117.679688 21.730469 C 118.234375 21.730469 118.765625 21.785156 119.269531 21.898438 C 119.773438 22.011719 120.226562 22.175781 120.632812 22.398438 L 120.03125 23.601562 C 119.710938 23.4375 119.359375 23.292969 118.976562 23.179688 C 118.597656 23.058594 118.164062 22.996094 117.679688 22.996094 "/>
<path style="fill:none;stroke-width:0.05;stroke-linecap:square;stroke-linejoin:bevel;stroke:rgb(100%,100%,100%);stroke-opacity:1;stroke-miterlimit:4;" d="M 0.00036359 0.00117153 C -0.234151 0.00117153 -0.450239 -0.0456191 -0.641201 -0.134187 C -0.832163 -0.222755 -0.996323 -0.351429 -1.132007 -0.518539 C -1.269365 -0.685648 -1.371546 -0.891193 -1.446926 -1.13183 C -1.518955 -1.370797 -1.557483 -1.643185 -1.557483 -1.945653 C -1.557483 -2.254806 -1.525656 -2.530536 -1.460327 -2.772845 C -1.394998 -3.015153 -1.296167 -3.217356 -1.167184 -3.381123 C -1.036526 -3.548232 -0.875716 -3.671893 -0.681404 -3.75879 C -0.487092 -3.845687 -0.260953 -3.889136 0.00036359 -3.889136 C 0.198026 -3.889136 0.383962 -3.867411 0.561523 -3.828976 C 0.734059 -3.790541 0.90827 -3.748764 1.080805 -3.69696 L 1.080805 -4.230039 C 0.995375 -4.265132 0.90827 -4.295212 0.82284 -4.320278 C 0.735734 -4.343673 0.646954 -4.365398 0.553148 -4.382108 C 0.461017 -4.395477 0.358836 -4.405504 0.253304 -4.413859 C 0.146098 -4.422215 0.0271652 -4.427228 -0.101818 -4.427228 C -0.46364 -4.427228 -0.775209 -4.36874 -1.039876 -4.24675 C -1.306217 -4.128102 -1.525656 -3.960993 -1.698192 -3.742079 C -1.870727 -3.524837 -1.99971 -3.262475 -2.083465 -2.954994 C -2.167221 -2.649184 -2.207423 -2.308281 -2.207423 -1.937298 C -2.207423 -1.569657 -2.16052 -1.235438 -2.063364 -0.934641 C -1.969558 -0.62716 -1.827175 -0.36814 -1.641238 -0.149227 C -1.455302 0.0680153 -1.222462 0.238467 -0.947745 0.358786 C -0.673028 0.480776 -0.354758 0.542606 0.00036359 0.542606 C 0.238228 0.542606 0.466042 0.519211 0.682131 0.470749 C 0.898219 0.422287 1.092531 0.352101 1.266742 0.256849 L 1.008776 -0.257848 C 0.871418 -0.187662 0.720658 -0.125832 0.556498 -0.0773699 C 0.394013 -0.025566 0.208076 0.00117153 0.00036359 0.00117153 Z M 0.00036359 0.00117153 " transform="matrix(2.331945,0,0,-2.33754,117.67884,22.998832)"/>
<path style=" stroke:none;fill-rule:nonzero;fill:rgb(85.098039%,85.098039%,85.098039%);fill-opacity:1;" d="M 90.414062 27.886719 L 43.859375 27.886719 L 43.859375 27.1875 L 90.414062 27.1875 Z M 90.414062 27.886719 "/>
</g>
</svg>
