<svg xmlns="http://www.w3.org/2000/svg" width="62" height="62">
	<path fill="#002747" d="M11 27H1l15 26h10zM26 .7H16L1 27h10z"></path>
	<path fill="#002747" d="M16 .7h20v10.2H16z"></path>
	<path fill="#002747" d="M36 1l-5.8 5.4L41 27h10z"></path>
	<path fill="#002747" d="M41.8 26.4l9.2-.3L41.8 43h-8.9z"></path>
	<g>
		<path fill="#002747" d="M46 54H16c-.4 0-.7-.2-.9-.5l-15-26c-.2-.3-.2-.7 0-1l15-26c.2-.3.5-.5.9-.5h30c.4 0 .7.2.9.5l15 26c.2.3.2.7 0 1l-15 26c-.2.3-.5.5-.9.5zm-29.4-2h28.8l14.4-25L45.4 2H16.6L2.2 27l14.4 25z"></path>
		<path fill="#002747" d="M26 54c-.3 0-.7-.2-.9-.5l-15-26c-.2-.3-.2-.7 0-1l9.2-16c.2-.3.5-.5.9-.5h11.5c.6 0 1 .4 1 1s-.4 1-1 1H20.8l-8.7 15 14.7 25.5c.3.5.1 1.1-.4 1.4-.1 0-.2.1-.4.1z"></path>
		<path fill="#002747" d="M30.2 44c-.3 0-.7-.2-.9-.5l-9.2-16c-.2-.3-.2-.7 0-1l9.2-16c.3-.5.9-.6 1.4-.4.5.3.6.9.4 1.4L22.2 27l8.9 15.5c.3.5.1 1.1-.4 1.4-.1 0-.3.1-.5.1z"></path>
		<path fill="#002747" d="M41.8 44H30.2c-.6 0-1-.4-1-1s.4-1 1-1h10.9l8.7-15L35.1 1.5c-.2-.5-.1-1.1.4-1.4.5-.2 1.1-.1 1.4.4l15 26c.2.3.2.7 0 1l-9.2 16c-.3.3-.6.5-.9.5z"></path>
		<path fill="#002747" d="M31.8 44c-.2 0-.3 0-.5-.1-.5-.3-.6-.9-.4-1.4 0 0 7.4-12.8 8.9-15.5l-8.9-15.5c-.3-.5-.1-1.1.4-1.4.5-.3 1.1-.1 1.4.4l9.2 16c.3.5.3.5-1.4 3.5l-7.8 13.5c-.3.3-.6.5-.9.5z"></path>
	</g>
	<circle fill="#002747" cx="31" cy="27" r="5"></circle>
</svg>